#!OML:ASF F:\VICON\USERDATA\INSTALL\rory3\rory3.ASF
:FULLY-SPECIFIED
:DEGREES
80
root 0.8984732327116418 17.820487713180043 32.389015013774994 -3.257355733800237 -1.7846734869354517 -2.847821606109827
lfemur 0.036686558501259015 -2.4837107425255773 -18.923527030371993
ltibia 49.75149974671348
lfoot -14.188623089461561 0.6432670160152782
ltoes -9.975947348774472
rfemur -12.287622641061368 4.900709628516626 26.020943022091807
rtibia 28.721535722861894
rfoot -11.150901273945962 -6.5954849793037225
rtoes 4.333947844132938
lowerback 10.045513165346566 -0.217261999704495 1.2625144156260666
upperback 0.35222437144042984 0.07298004659355573 2.1994862293938944
thorax -5.524997183318088 0.036960906376283964 2.000023244390995
lowerneck -16.056285254042148 -2.6481460439058053 -1.698304281195096
upperneck 23.6031960695506 -3.12865916184386 -0.23874461702685187
head 10.293996575073265 -1.646952207006871 -0.17959945101811634
lclavicle -2.7026064543863903e-15 -2.3230481476850984e-15
lhumerus -26.48888112745159 0.5618026502030218 81.2230414181422
lradius 24.416415545997598
lwrist 7.57566480499672
lhand -26.90668286130391 22.604300358522384
lfingers 7.125020000000001
lthumb -0.0053637202117440275 53.144800398293434
rclavicle -2.70260645440413e-15 -2.3230481476970855e-15
rhumerus -27.350150854351313 -18.93789262299853 -76.55240054404095
rradius 29.006702045197013
rwrist 3.5959884680565746
rhand -18.022454998283727 22.20245413578092
rfingers 7.125020000000001
rthumb 8.308544225262748 -7.4533706557725505
81
root 0.9279501513687103 17.83342299314417 33.546663641083015 -3.3294034057011235 -1.8554154261658002 -2.726793182042564
lfemur -0.2547504272255132 -2.3696599681595907 -18.720720851828517
ltibia 51.53219019157959
lfoot -13.643243053980164 -0.0036434856075562294
ltoes -8.4200106942669
rfemur -11.865444307913277 4.896847749736203 25.89623064928964
rtibia 28.517311865839723
rfoot -11.179061935993445 -6.6039417072518765
rtoes 4.44206401587719
lowerback 10.005641565184797 -0.1866291192961122 1.2622846669643042
upperback 0.3381728700409851 0.10351118014587579 2.228699434450884
thorax -5.521876402595774 0.057943595140863 1.976882179695622
lowerneck -16.08143817105255 -2.6487226091821436 -1.683423897235761
upperneck 23.70387894781592 -3.1145271420048415 -0.32570347444020686
head 10.35770602416893 -1.6427786562349163 -0.21894605109133458
lclavicle -2.7026064543861978e-15 -2.323048147685068e-15
lhumerus -26.258840321540813 0.6646430081110801 81.15338923173807
lradius 25.036901600726114
lwrist 7.600566135088673
lhand -27.08034100287961 22.500474539484806
lfingers 7.125020000000001
lthumb -0.15613294563903446 52.99276876406382
rclavicle -2.7026064544126905e-15 -2.3230481477032296e-15
rhumerus -27.732810605725668 -19.129781868514787 -76.33755590248221
rradius 28.677007505143
rwrist 2.7326632327419906
rhand -18.02547769789749 22.239851884806196
rfingers 7.125020000000001
rthumb 8.293634457961584 -7.395007168182137
82
root 0.9512791058278354 17.84797273110797 33.90424224209233 -3.318545218051363 -1.8665889529940183 -2.849269765020119
lfemur -0.7192487023281213 -2.2724519347383088 -18.394060433841027
ltibia 52.980871341996746
lfoot -13.250907215841483 -0.6352683113036128
ltoes -10.783854955515366
rfemur -11.427941285648481 4.942716799610934 26.020587536419725
rtibia 28.09162918741234
rfoot -11.17894895926877 -6.664373008759794
rtoes 4.650713565339718
lowerback 9.922788394713697 -0.16116496666797808 1.4405390466786132
upperback 0.24408014184678145 0.15010078795173526 2.266134927397385
thorax -5.5650358043094235 0.09121059434915438 1.927746607929254
lowerneck -16.08096735912033 -2.6533300006761755 -1.6417774167165498
upperneck 23.769231506655885 -3.124363837608538 -0.41990904995214656
head 10.43719433775845 -1.6454824991621617 -0.2735147983771657
lclavicle -2.7026064543931047e-15 -2.3230481476901223e-15
lhumerus -26.212100888281253 0.7219211890290067 81.09048462585487
lradius 25.56248025809464
lwrist 7.4345308316906635
lhand -27.02960048002584 22.787761234569913
lfingers 7.125020000000001
lthumb -0.07344453509072268 53.31845746581495
rclavicle -2.702606454404937e-15 -2.3230481476979032e-15
rhumerus -28.291305207288787 -19.468757124875545 -76.03148061756308
rradius 28.491559724098057
rwrist 2.0976433737409876
rhand -18.048075026234233 22.208931062854425
rfingers 7.125020000000001
rthumb 8.224133760634492 -7.504198293803384
83
root 0.9609482666039395 17.855215904797607 34.190167018833534 -3.352015921313499 -1.915485116094845 -2.8678564219517395
lfemur -0.8229536319333288 -2.1999328765325434 -18.16485060381361
ltibia 53.89931062975881
lfoot -12.935142880962168 -1.2620733657961773
ltoes -10.666685747276505
rfemur -11.020766413915391 5.062731598532969 26.081815600879473
rtibia 27.940424949527763
rfoot -11.142082566707476 -6.7252822320353
rtoes 4.833625780716414
lowerback 9.869985679118857 -0.10346927513674009 1.509665902623205
upperback 0.17119894146750012 0.21602291462404533 2.264921931582175
thorax -5.588762552362178 0.12286525463346445 1.870466709426963
lowerneck -16.067268027425715 -2.6705100693546715 -1.621599462685828
upperneck 23.754247147179502 -3.147072461607652 -0.46037469615688215
head 10.411572994646395 -1.6556186130912465 -0.2946767664327461
lclavicle -2.70260645439194e-15 -2.3230481476894924e-15
lhumerus -26.03404977853735 0.9260776804887518 81.16953091014932
lradius 26.035187924211364
lwrist 7.002662350882034
lhand -27.06720635232352 22.823037601777667
lfingers 7.125020000000001
lthumb -0.12147241036696599 53.304978707483976
rclavicle -2.7026064544028053e-15 -2.3230481476966446e-15
rhumerus -28.644365773185687 -19.72329367371572 -75.84119559932897
rradius 28.428639417917278
rwrist 2.0124031541245495
rhand -18.01173543676731 22.27661171019483
rfingers 7.125020000000001
rthumb 8.26810028697412 -7.422826591304809
84
root 0.9675889985208799 17.853259621763236 34.3298822034682 -3.460649047931737 -1.9726535382229686 -2.7628517736982463
lfemur -0.9278101731837065 -2.1630919194275826 -18.135912628817486
ltibia 54.478408209477806
lfoot -12.789758434078722 -1.9128237635015017
ltoes -12.588277880709045
rfemur -10.699614973092533 5.20170845516555 26.050963188768975
rtibia 28.288353654571466
rfoot -10.9809000727784 -6.791281809135583
rtoes 4.642202040574435
lowerback 9.845977512789492 -0.0349657774158354 1.496819604664167
upperback 0.13687149000556662 0.31447968914375285 2.22878652516264
thorax -5.580839061804316 0.16325583917301573 1.7626468366428711
lowerneck -16.083787855659047 -2.6983706605638043 -1.5988166871629417
upperneck 23.828546049697234 -3.194931408526586 -0.49595437061415704
head 10.474458479608172 -1.6744914283084351 -0.32938312757511223
lclavicle -2.702606454397573e-15 -2.3230481476935542e-15
lhumerus -26.006556786937136 1.0298760690193953 81.21554612901717
lradius 26.420836890444203
lwrist 6.806691750434787
lhand -27.224439351636335 22.64157563956066
lfingers 7.125020000000001
lthumb -0.35083391296200195 53.00862247706302
rclavicle -2.7026064543988886e-15 -2.323048147693925e-15
rhumerus -28.975784991706554 -19.919969077459026 -75.94796080220698
rradius 28.484190746673946
rwrist 1.6204927452126565
rhand -17.99528006272214 22.27578833071058
rfingers 7.125020000000001
rthumb 8.288833470378378 -7.404625396149067
85
root 0.9833768403012606 17.8517603953527 35.07247595493013 -3.4999517640082383 -1.9145693659569656 -2.565909426665457
lfemur -1.1064027768513611 -2.20591892177259 -18.301750437428794
ltibia 54.98643555946
lfoot -12.816588297837088 -2.560914497977663
ltoes -13.475825067065514
rfemur -10.476097869610824 5.224053330865569 25.90566945338285
rtibia 29.02792232081437
rfoot -10.817739884577541 -6.8844557193450235
rtoes 4.386400526127486
lowerback 9.742885071817337 -0.011131912870019245 1.4067481103899606
upperback 0.1687960285902299 0.3744940037165205 2.1985372247176054
thorax -5.511814002941619 0.1805482904979677 1.654474609513773
lowerneck -16.140087657875238 -2.735767595374472 -1.5742063753830724
upperneck 23.854766048219442 -3.2719156221933914 -0.5019298569213035
head 10.541146624750498 -1.7015302164940047 -0.3583816520949622
lclavicle -2.7026064543897212e-15 -2.3230481476881738e-15
lhumerus -25.87045760750824 1.02333293834061 81.29616843111232
lradius 26.663896408294647
lwrist 6.874326639991303
lhand -27.441871411371423 22.697975337540655
lfingers 7.125020000000001
lthumb -0.630846698351535 52.96717977416032
rclavicle -2.7026064543919604e-15 -2.323048147689171e-15
rhumerus -29.283076951006763 -20.063178029685318 -76.04836051128112
rradius 28.612325505497868
rwrist 1.3921385808873934
rhand -17.972441182137285 22.32432902752066
rfingers 7.125020000000001
rthumb 8.389982575527187 -7.319670743554926
86
root 0.982482988534809 17.854950992264456 34.92597887675198 -3.3971399238295454 -1.8097239371671994 -2.7575787618236385
lfemur -1.745489549452758 -2.2182103690415675 -18.11326887140053
ltibia 55.74707127652097
lfoot -12.912437113375447 -3.067429096181585
ltoes -13.582275441655762
rfemur -10.077005224580116 5.310924655520224 26.129232639308107
rtibia 29.397437167670105
rfoot -10.589404252488531 -6.940242662755248
rtoes 3.7844727996273835
lowerback 9.683084026288778 0.018474324654525198 1.5895074531615492
upperback 0.1363519928355251 0.45449209794059253 2.1751045436400442
thorax -5.526137444680664 0.217879474809017 1.4981215248523112
lowerneck -16.138391353059223 -2.7777069581995653 -1.576908281119705
upperneck 23.817757106103674 -3.3480477976898793 -0.512313875645872
head 10.532933510085119 -1.732575492394723 -0.3774569385651549
lclavicle -2.7026064543897177e-15 -2.3230481476883114e-15
lhumerus -25.901295487895705 0.8036951106405499 81.32244335043757
lradius 26.668923054520125
lwrist 7.080762148068642
lhand -27.456920175874878 23.20894705906257
lfingers 7.125020000000001
lthumb -0.762159307146914 53.34083884027638
rclavicle -2.70260645438826e-15 -2.3230481476866655e-15
rhumerus -29.60066027984183 -20.32016915000151 -76.4483308972775
rradius 28.75798306552321
rwrist 1.5527703262925767
rhand -17.939993573885694 22.343310022853167
rfingers 7.125020000000001
rthumb 8.428366998608603 -7.338132894154084
